<svg width="200" height="200" viewBox="0 0 200 200" fill="none" xmlns="http://www.w3.org/2000/svg">
<g clip-path="url(#clip0_112_683)">
<path fill-rule="evenodd" clip-rule="evenodd" d="M0.45 37.4999C2.12043 26.022 8.27528 15.6754 17.5644 8.72968C26.8535 1.78394 38.5183 -1.19373 50 0.449848V26.0623C45.3082 24.4229 40.1585 24.7052 35.6741 26.8479C31.1898 28.9906 27.7347 32.8196 26.0625 37.4999H75V112.5H0V37.4999H0.45ZM199.55 125H200V200H125V125H173.938C173.122 122.674 171.855 120.531 170.209 118.697C168.562 116.862 166.57 115.371 164.345 114.309C162.12 113.247 159.708 112.636 157.246 112.51C154.784 112.384 152.321 112.746 150 113.575V87.9498C161.482 86.3063 173.147 89.2839 182.436 96.2297C191.725 103.175 197.88 113.522 199.55 125ZM175 150H150V175H175V150ZM25 62.4998V87.4998H50V62.4998H25Z" fill="black"/>
</g>
<defs>
<clipPath id="clip0_112_683">
<rect width="200" height="200" fill="white"/>
</clipPath>
</defs>
</svg>
